<svg width="100" height="100" viewBox="0 0 100 100" fill="none" xmlns="http://www.w3.org/2000/svg">
<g clip-path="url(#clip0)">
<rect width="100" height="100" rx="1" fill="#07090E"/>
<g filter="url(#filter0_f)">
<ellipse rx="68.8429" ry="20.3558" transform="matrix(0.867295 -0.497794 -0.497794 -0.867295 48.7968 47.5097)" fill="#214CE4" fill-opacity="0.1"/>
</g>
<g filter="url(#filter1_d)">
<path d="M35.0969 46.24C35.1502 46.5067 35.2729 46.7733 35.4649 47.04C35.6569 47.296 35.7529 47.4933 35.7529 47.632V47.696C35.7529 47.8987 35.6249 48 35.3689 48H32.0409C31.7849 48 31.6569 47.8987 31.6569 47.696V47.632C31.6569 47.5253 31.7635 47.3387 31.9769 47.072C32.1902 46.7947 32.2702 46.5173 32.2169 46.24L31.2569 40.656L28.8089 47.52C28.7022 47.8293 28.5102 47.984 28.2329 47.984C27.9235 47.984 27.6995 47.8347 27.5609 47.536L24.7609 40.4L23.8969 46.24C23.8542 46.5173 23.9395 46.7893 24.1529 47.056C24.3662 47.3227 24.4729 47.5147 24.4729 47.632V47.696C24.4729 47.8987 24.3449 48 24.0889 48H22.1049C21.8489 48 21.7209 47.8987 21.7209 47.696V47.632C21.7209 47.4933 21.8169 47.296 22.0089 47.04C22.2115 46.7733 22.3342 46.5067 22.3769 46.24L23.5929 38.4C23.6355 38.1227 23.5395 37.8507 23.3049 37.584C23.0809 37.3173 22.9689 37.1253 22.9689 37.008V36.944C22.9689 36.7413 23.0915 36.64 23.3369 36.64H25.4489C25.8862 36.64 26.1742 36.832 26.3129 37.216L28.6329 44L30.8729 37.248C31.0222 36.8427 31.2995 36.64 31.7049 36.64H33.8809C34.1262 36.64 34.2489 36.7413 34.2489 36.944V37.008C34.2489 37.1147 34.1315 37.3067 33.8969 37.584C33.6622 37.8613 33.5715 38.144 33.6249 38.432L35.0969 46.24ZM44.145 46.256C44.177 46.512 44.2357 46.72 44.321 46.88C44.417 47.0293 44.5077 47.1253 44.593 47.168C44.689 47.2107 44.7743 47.264 44.849 47.328C44.9237 47.392 44.961 47.472 44.961 47.568C44.961 47.92 44.3583 48.096 43.153 48.096C42.6623 48.096 42.2943 48.0373 42.049 47.92C41.8143 47.8027 41.665 47.6053 41.601 47.328C41.1957 47.8827 40.5183 48.16 39.569 48.16C38.673 48.16 37.9423 47.952 37.377 47.536C36.8223 47.12 36.545 46.5173 36.545 45.728C36.545 44.96 36.8223 44.3627 37.377 43.936C37.9317 43.4987 38.6143 43.28 39.425 43.28C40.0543 43.28 40.593 43.4133 41.041 43.68V43.632C40.9343 42.576 40.8117 41.8613 40.673 41.488C40.545 41.1147 40.289 40.928 39.905 40.928C39.6597 40.928 39.4623 41.04 39.313 41.264C39.1637 41.488 39.0517 41.7333 38.977 42C38.913 42.2667 38.785 42.512 38.593 42.736C38.401 42.96 38.145 43.072 37.825 43.072C37.4943 43.072 37.2223 42.976 37.009 42.784C36.8063 42.592 36.705 42.3413 36.705 42.032C36.705 41.4133 37.0143 40.9493 37.633 40.64C38.2517 40.32 39.009 40.16 39.905 40.16C40.9717 40.16 41.8517 40.4533 42.545 41.04C43.249 41.616 43.665 42.4 43.793 43.392L44.145 46.256ZM40.449 47.344C40.6943 47.344 40.8917 47.2267 41.041 46.992C41.201 46.7573 41.281 46.4907 41.281 46.192L41.217 45.456C41.1103 44.5707 40.7797 44.128 40.225 44.128C39.9797 44.128 39.7823 44.2293 39.633 44.432C39.4837 44.624 39.409 44.8853 39.409 45.216C39.409 45.8133 39.4997 46.32 39.681 46.736C39.873 47.1413 40.129 47.344 40.449 47.344ZM54.1735 46.656C54.2268 46.7307 54.3868 46.8693 54.6535 47.072C54.9308 47.2747 55.0695 47.4613 55.0695 47.632V47.696C55.0695 47.8987 54.9468 48 54.7015 48H51.3415C51.0962 48 50.9735 47.8933 50.9735 47.68V47.632C50.9735 47.504 51.0535 47.3493 51.2135 47.168C51.3735 46.976 51.4055 46.8053 51.3095 46.656L49.9015 44.56L49.1015 45.296V46.256C49.1015 46.5227 49.2188 46.7893 49.4535 47.056C49.6988 47.312 49.8215 47.504 49.8215 47.632V47.696C49.8215 47.8987 49.6935 48 49.4375 48H45.9815C45.7255 48 45.5975 47.8987 45.5975 47.696V47.632C45.5975 47.504 45.7042 47.312 45.9175 47.056C46.1308 46.7893 46.2375 46.5227 46.2375 46.256V38.944C46.2375 38.6667 46.1095 38.4 45.8535 38.144C45.5975 37.8773 45.4695 37.6907 45.4695 37.584V37.52C45.4695 37.4027 45.5868 37.28 45.8215 37.152L48.3815 35.968C48.6055 35.8827 48.7815 35.8773 48.9095 35.952C49.0375 36.0267 49.1015 36.144 49.1015 36.304V43.904L51.2615 42.048C51.3895 41.9627 51.4375 41.856 51.4055 41.728C51.3842 41.6 51.3308 41.488 51.2455 41.392C51.1708 41.2853 51.0855 41.168 50.9895 41.04C50.9042 40.912 50.8615 40.8 50.8615 40.704V40.64C50.8615 40.4267 50.9842 40.32 51.2295 40.32H53.7575C54.0028 40.32 54.1255 40.4213 54.1255 40.624V40.688C54.1255 40.816 54.0508 40.9493 53.9015 41.088C53.7522 41.216 53.5388 41.3707 53.2615 41.552C52.9948 41.7227 52.7815 41.8827 52.6215 42.032L51.5975 42.976L54.1735 46.656ZM57.7196 39.376C57.1756 39.376 56.733 39.2267 56.3916 38.928C56.0503 38.6187 55.8796 38.2347 55.8796 37.776C55.8796 37.3173 56.0503 36.9387 56.3916 36.64C56.733 36.3307 57.1756 36.176 57.7196 36.176C58.253 36.176 58.6903 36.3307 59.0316 36.64C59.373 36.9387 59.5436 37.3173 59.5436 37.776C59.5436 38.2347 59.373 38.6187 59.0316 38.928C58.6903 39.2267 58.253 39.376 57.7196 39.376ZM56.0076 48C55.7516 48 55.6236 47.8987 55.6236 47.696V47.632C55.6236 47.504 55.7303 47.3067 55.9436 47.04C56.157 46.7733 56.2636 46.5067 56.2636 46.24V43.2C56.2636 42.9227 56.157 42.656 55.9436 42.4C55.7303 42.1333 55.6236 41.952 55.6236 41.856V41.792C55.6236 41.664 55.7463 41.5413 55.9916 41.424L58.4076 40.24C58.6316 40.144 58.8076 40.1333 58.9356 40.208C59.0636 40.2827 59.1276 40.4053 59.1276 40.576V46.24C59.1276 46.5067 59.245 46.7733 59.4796 47.04C59.725 47.3067 59.8476 47.504 59.8476 47.632V47.696C59.8476 47.8987 59.7143 48 59.4476 48H56.0076ZM69.5367 46.256C69.5581 46.5227 69.6594 46.7893 69.8407 47.056C70.0221 47.312 70.1128 47.5093 70.1128 47.648V47.712C70.1128 47.9147 69.9848 48.016 69.7288 48.016H66.5287C66.2727 48.016 66.1447 47.9147 66.1447 47.712V47.648C66.1447 47.52 66.2461 47.3227 66.4488 47.056C66.6514 46.7893 66.7421 46.5227 66.7207 46.256L66.5608 43.392C66.5181 42.6027 66.4114 42.0427 66.2407 41.712C66.0807 41.3813 65.8194 41.216 65.4567 41.216C65.1154 41.216 64.8541 41.3547 64.6727 41.632C64.5021 41.9093 64.4167 42.288 64.4167 42.768V46.256C64.4167 46.5227 64.5341 46.7893 64.7687 47.056C65.0034 47.3227 65.1207 47.52 65.1207 47.648V47.712C65.1207 47.9147 64.9927 48.016 64.7367 48.016H61.2807C61.0247 48.016 60.8967 47.9147 60.8967 47.712V47.648C60.8967 47.52 61.0141 47.3227 61.2487 47.056C61.4834 46.7893 61.6007 46.5227 61.6007 46.256V43.104C61.6007 42.88 61.5314 42.6933 61.3927 42.544C61.2541 42.384 61.1101 42.2507 60.9607 42.144C60.8221 42.0267 60.7527 41.904 60.7527 41.776V41.728C60.7527 41.5893 60.8807 41.456 61.1367 41.328L63.3767 40.224C63.5794 40.1387 63.7287 40.1387 63.8247 40.224C63.9314 40.2987 63.9847 40.4267 63.9847 40.608V41.36C64.4327 40.56 65.1954 40.16 66.2727 40.16C67.0727 40.16 67.7607 40.4213 68.3368 40.944C68.9128 41.4667 69.2434 42.3147 69.3287 43.488L69.5367 46.256ZM78.0521 40.32C78.5535 40.32 78.8788 40.3627 79.0281 40.448C79.1775 40.5227 79.2415 40.656 79.2201 40.848C79.2095 40.9973 79.1561 41.12 79.0601 41.216C78.9748 41.3013 78.8841 41.36 78.7881 41.392C78.7028 41.4133 78.5695 41.4453 78.3881 41.488C78.2175 41.52 78.0948 41.5467 78.0201 41.568C78.5428 42.1653 78.8041 42.8267 78.8041 43.552C78.8041 44.8 78.2281 45.7173 77.0761 46.304C77.7588 46.4533 78.2441 46.672 78.5321 46.96C78.8201 47.2373 78.9641 47.5893 78.9641 48.016C78.9641 48.6453 78.5641 49.1573 77.7641 49.552C76.9641 49.9573 75.9721 50.16 74.7881 50.16C73.6255 50.16 72.7028 49.9787 72.0201 49.616C71.3481 49.2533 71.0121 48.736 71.0121 48.064C71.0121 47.7867 71.1081 47.5413 71.3001 47.328C71.4921 47.1147 71.7641 47.008 72.1161 47.008C72.4361 47.008 72.7081 47.1307 72.9321 47.376C73.1668 47.6213 73.3375 47.8933 73.4441 48.192C73.5615 48.4907 73.7321 48.7627 73.9561 49.008C74.1908 49.264 74.4735 49.392 74.8041 49.392C75.2201 49.4027 75.5455 49.28 75.7801 49.024C76.0148 48.7787 76.1321 48.4533 76.1321 48.048C76.1321 47.312 75.9081 46.88 75.4601 46.752C75.2255 46.7733 75.0335 46.784 74.8841 46.784C73.7535 46.784 72.8201 46.4853 72.0841 45.888C71.3588 45.2907 70.9961 44.5173 70.9961 43.568C70.9961 42.5547 71.3588 41.7333 72.0841 41.104C72.8201 40.4747 73.7641 40.16 74.9161 40.16C75.2148 40.16 75.6841 40.1867 76.3241 40.24C76.9641 40.2933 77.5401 40.32 78.0521 40.32ZM73.6681 42.288C73.6681 43.1307 73.8335 43.9573 74.1641 44.768C74.4948 45.5787 74.8681 45.984 75.2841 45.984C75.5508 45.984 75.7588 45.8667 75.9081 45.632C76.0681 45.3867 76.1481 45.056 76.1481 44.64C76.1481 43.8827 75.9828 43.0773 75.6521 42.224C75.3215 41.3707 74.9375 40.944 74.5001 40.944C74.2441 40.944 74.0415 41.0613 73.8921 41.296C73.7428 41.5307 73.6681 41.8613 73.6681 42.288ZM32.8372 62C32.5919 62 32.4692 61.8987 32.4692 61.696V61.632C32.4692 61.504 32.5812 61.312 32.8052 61.056C33.0399 60.7893 33.1572 60.5227 33.1572 60.256V51.84H32.3092C32.0639 51.84 31.8399 51.9413 31.6372 52.144C31.4452 52.3467 31.2905 52.5707 31.1732 52.816C31.0665 53.0507 30.9332 53.2693 30.7732 53.472C30.6132 53.6747 30.4532 53.776 30.2932 53.776H30.0212C29.7225 53.776 29.5892 53.6213 29.6212 53.312L29.9412 51.136C29.9732 50.8053 30.1545 50.64 30.4852 50.64H38.7092C39.0292 50.64 39.2105 50.8053 39.2532 51.136L39.5892 53.328C39.6105 53.4667 39.5839 53.5787 39.5092 53.664C39.4345 53.7387 39.3279 53.776 39.1892 53.776H38.9172C38.7572 53.776 38.5972 53.6747 38.4372 53.472C38.2772 53.2693 38.1385 53.0507 38.0212 52.816C37.9039 52.5707 37.7439 52.3467 37.5412 52.144C37.3385 51.9413 37.1145 51.84 36.8692 51.84H36.0372V60.256C36.0372 60.5227 36.1492 60.7893 36.3732 61.056C36.6079 61.312 36.7252 61.504 36.7252 61.632V61.696C36.7252 61.8987 36.5972 62 36.3412 62H32.8372ZM46.7034 60.256C46.7354 60.512 46.7941 60.72 46.8794 60.88C46.9754 61.0293 47.0661 61.1253 47.1514 61.168C47.2474 61.2107 47.3328 61.264 47.4074 61.328C47.4821 61.392 47.5194 61.472 47.5194 61.568C47.5194 61.92 46.9168 62.096 45.7114 62.096C45.2208 62.096 44.8528 62.0373 44.6074 61.92C44.3728 61.8027 44.2234 61.6053 44.1594 61.328C43.7541 61.8827 43.0768 62.16 42.1274 62.16C41.2314 62.16 40.5008 61.952 39.9354 61.536C39.3808 61.12 39.1034 60.5173 39.1034 59.728C39.1034 58.96 39.3808 58.3627 39.9354 57.936C40.4901 57.4987 41.1728 57.28 41.9834 57.28C42.6128 57.28 43.1514 57.4133 43.5994 57.68V57.632C43.4928 56.576 43.3701 55.8613 43.2314 55.488C43.1034 55.1147 42.8474 54.928 42.4634 54.928C42.2181 54.928 42.0208 55.04 41.8714 55.264C41.7221 55.488 41.6101 55.7333 41.5354 56C41.4714 56.2667 41.3434 56.512 41.1514 56.736C40.9594 56.96 40.7034 57.072 40.3834 57.072C40.0528 57.072 39.7808 56.976 39.5674 56.784C39.3648 56.592 39.2634 56.3413 39.2634 56.032C39.2634 55.4133 39.5728 54.9493 40.1914 54.64C40.8101 54.32 41.5674 54.16 42.4634 54.16C43.5301 54.16 44.4101 54.4533 45.1034 55.04C45.8074 55.616 46.2234 56.4 46.3514 57.392L46.7034 60.256ZM43.0074 61.344C43.2528 61.344 43.4501 61.2267 43.5994 60.992C43.7594 60.7573 43.8394 60.4907 43.8394 60.192L43.7754 59.456C43.6688 58.5707 43.3381 58.128 42.7834 58.128C42.5381 58.128 42.3408 58.2293 42.1914 58.432C42.0421 58.624 41.9674 58.8853 41.9674 59.216C41.9674 59.8133 42.0581 60.32 42.2394 60.736C42.4314 61.1413 42.6874 61.344 43.0074 61.344ZM51.7239 62.144C50.6999 62.144 49.8573 61.9733 49.1959 61.632C48.5346 61.28 48.2039 60.8267 48.2039 60.272C48.2039 59.9307 48.3053 59.6747 48.5079 59.504C48.7213 59.3333 48.9986 59.248 49.3399 59.248C49.7026 59.248 49.9906 59.3653 50.2039 59.6C50.4173 59.824 50.5613 60.0747 50.6359 60.352C50.7106 60.6187 50.8386 60.8693 51.0199 61.104C51.2013 61.328 51.4359 61.44 51.7239 61.44C52.2999 61.44 52.5879 61.1467 52.5879 60.56C52.5879 60.176 52.4386 59.872 52.1399 59.648C51.8519 59.424 51.4999 59.2533 51.0839 59.136C50.6679 59.0187 50.2519 58.8853 49.8359 58.736C49.4306 58.5867 49.0786 58.336 48.7799 57.984C48.4919 57.632 48.3479 57.168 48.3479 56.592C48.3479 55.8773 48.6626 55.296 49.2919 54.848C49.9213 54.3893 50.7319 54.16 51.7239 54.16C52.7159 54.16 53.5213 54.3467 54.1399 54.72C54.7693 55.0933 55.0839 55.5467 55.0839 56.08C55.0839 56.3573 54.9773 56.592 54.7639 56.784C54.5613 56.9653 54.3106 57.056 54.0119 57.056C53.6599 57.056 53.3826 56.944 53.1799 56.72C52.9773 56.496 52.8386 56.2507 52.7639 55.984C52.6999 55.7067 52.5933 55.456 52.4439 55.232C52.3053 55.008 52.1133 54.896 51.8679 54.896C51.6333 54.896 51.4466 54.9867 51.3079 55.168C51.1799 55.3493 51.1159 55.5627 51.1159 55.808C51.1159 56.2027 51.2546 56.5227 51.5319 56.768C51.8199 57.0133 52.1613 57.2 52.5559 57.328C52.9613 57.456 53.3613 57.5947 53.7559 57.744C54.1613 57.8933 54.5026 58.1387 54.7799 58.48C55.0679 58.8107 55.2119 59.248 55.2119 59.792C55.2119 60.4747 54.8973 61.04 54.2679 61.488C53.6493 61.9253 52.8013 62.144 51.7239 62.144ZM59.6183 62.16C58.8076 62.16 58.1676 61.904 57.6983 61.392C57.2396 60.88 57.0103 60.1493 57.0103 59.2V55.408H56.4023C56.2956 55.408 56.205 55.376 56.1303 55.312C56.0663 55.2373 56.0343 55.1467 56.0343 55.04V54.688C56.0343 54.4427 56.157 54.32 56.4023 54.32H56.7063C57.197 54.32 57.6183 54.176 57.9703 53.888C58.3223 53.5893 58.5516 53.1947 58.6583 52.704C58.7116 52.4267 58.8556 52.288 59.0903 52.288H59.4583C59.7463 52.288 59.8903 52.4267 59.8903 52.704V54.32H61.5383C61.645 54.32 61.7303 54.3573 61.7943 54.432C61.869 54.496 61.9063 54.5813 61.9063 54.688V55.04C61.9063 55.1467 61.869 55.2373 61.7943 55.312C61.7303 55.376 61.645 55.408 61.5383 55.408H59.8903V59.248C59.8903 59.5147 59.9596 59.728 60.0983 59.888C60.237 60.0373 60.4076 60.112 60.6103 60.112C61.069 60.112 61.421 59.9147 61.6663 59.52C61.741 59.424 61.8263 59.3707 61.9223 59.36C62.0183 59.3387 62.0983 59.3547 62.1623 59.408C62.237 59.4613 62.2743 59.536 62.2743 59.632C62.2743 60.304 62.0343 60.896 61.5543 61.408C61.085 61.9093 60.4396 62.16 59.6183 62.16ZM71.2577 54.32C71.503 54.32 71.6257 54.4213 71.6257 54.624V54.688C71.6257 54.848 71.503 55.0667 71.2577 55.344C71.023 55.6213 70.8577 55.872 70.7617 56.096L67.7377 62.608C67.5884 62.9493 67.439 63.2427 67.2897 63.488C67.151 63.744 66.9537 64.0373 66.6977 64.368C66.4524 64.7093 66.159 64.9707 65.8177 65.152C65.4764 65.344 65.1084 65.44 64.7137 65.44C63.967 65.44 63.3537 65.2533 62.8737 64.88C62.4044 64.5067 62.1697 64.0747 62.1697 63.584C62.1697 63.2427 62.271 62.9707 62.4737 62.768C62.6764 62.5653 62.9537 62.464 63.3057 62.464C63.6577 62.464 63.9297 62.576 64.1217 62.8C64.3244 63.024 64.447 63.264 64.4897 63.52C64.543 63.7867 64.6177 64.032 64.7137 64.256C64.8097 64.48 64.9377 64.592 65.0977 64.592C65.5137 64.592 66.015 63.8987 66.6017 62.512L63.3537 56.096C63.2364 55.872 63.055 55.6267 62.8097 55.36C62.575 55.0827 62.4577 54.8587 62.4577 54.688V54.624C62.4577 54.4213 62.5804 54.32 62.8257 54.32H66.2657C66.5004 54.32 66.6177 54.4267 66.6177 54.64V54.704C66.6177 54.8107 66.5697 54.9333 66.4737 55.072C66.3777 55.2107 66.3137 55.3387 66.2817 55.456C66.2497 55.5733 66.287 55.7973 66.3937 56.128L68.0257 59.968L69.4977 56.4C69.615 56.0053 69.615 55.7333 69.4977 55.584C69.391 55.424 69.2364 55.264 69.0337 55.104C68.8417 54.944 68.7457 54.8107 68.7457 54.704V54.64C68.7457 54.4267 68.8684 54.32 69.1137 54.32H71.2577Z" fill="url(#paint0_linear)"/>
</g>
</g>
<rect x="0.25" y="0.25" width="99.5" height="99.5" rx="0.75" stroke="white" stroke-opacity="0.1" stroke-width="0.5"/>
<defs>
<filter id="filter0_f" x="-71.7734" y="-51.0481" width="241.141" height="197.116" filterUnits="userSpaceOnUse" color-interpolation-filters="sRGB">
<feFlood flood-opacity="0" result="BackgroundImageFix"/>
<feBlend mode="normal" in="SourceGraphic" in2="BackgroundImageFix" result="shape"/>
<feGaussianBlur stdDeviation="30" result="effect1_foregroundBlur"/>
</filter>
<filter id="filter1_d" x="-17.2793" y="0.89978" width="135.503" height="107.54" filterUnits="userSpaceOnUse" color-interpolation-filters="sRGB">
<feFlood flood-opacity="0" result="BackgroundImageFix"/>
<feColorMatrix in="SourceAlpha" type="matrix" values="0 0 0 0 0 0 0 0 0 0 0 0 0 0 0 0 0 0 127 0" result="hardAlpha"/>
<feMorphology radius="4" operator="dilate" in="SourceAlpha" result="effect1_dropShadow"/>
<feOffset dy="4"/>
<feGaussianBlur stdDeviation="17.5"/>
<feComposite in2="hardAlpha" operator="out"/>
<feColorMatrix type="matrix" values="0 0 0 0 0.558471 0 0 0 0 0.129406 0 0 0 0 0.895594 0 0 0 0.1 0"/>
<feBlend mode="normal" in2="BackgroundImageFix" result="effect1_dropShadow"/>
<feBlend mode="normal" in="SourceGraphic" in2="effect1_dropShadow" result="shape"/>
</filter>
<linearGradient id="paint0_linear" x1="98.0243" y1="67.5539" x2="22.8499" y2="65.3231" gradientUnits="userSpaceOnUse">
<stop stop-color="#CE63C3"/>
<stop offset="1" stop-color="#3B2ED0"/>
</linearGradient>
<clipPath id="clip0">
<rect width="100" height="100" rx="1" fill="white"/>
</clipPath>
</defs>
</svg>
