<svg width="196" height="56" viewBox="0 0 196 56" fill="none" xmlns="http://www.w3.org/2000/svg">
<path d="M64.6003 55.9705H37.0744L32.2412 47.5956L27.408 55.9705H0L32.2412 0.117957L32.3001 0L32.3591 0.117957L64.6003 55.9705Z" fill="white"/>
<path d="M85.4362 55.9705H99.4939L78.8053 20.1411L98.816 0.11792H35.7188L67.96 56H82.0176L67.7242 31.2585L69.8756 29.1058L85.4362 55.9705ZM61.4469 20.2885L56.8494 12.297H69.4335L61.4469 20.2885Z" fill="white"/>
<path d="M125.193 36.891L123.483 36.3307L124.485 38.0705L131.529 50.2791L128.228 56H120.742L117.442 50.2791L100.172 20.318L93.8649 9.37753L102.795 0.47179L109.101 11.3828L112.019 16.4844L114.966 0.11792H127.344L123.159 23.4144L131.411 26.0684L143.288 29.902L137.04 40.6951L125.193 36.891Z" fill="white"/>
<path d="M151.451 15.7177L145.233 26.5108L134.181 22.9721L133.356 22.7067L127.668 20.8783L127.933 19.3744L131.411 0.11792H143.789L142.58 6.69401L141.549 12.5329L151.451 15.7177Z" fill="white"/>
<path d="M163.799 0.11792L156.756 12.297L154.251 16.6319L148.032 27.4249L146.087 30.8162L139.869 41.6092L138.602 43.7914L133.209 53.169L131.588 56H163.122L170.165 43.8209L188.319 12.3265L195.363 0.147409H163.799V0.11792ZM169.016 21.3796L162.797 32.1727L156.078 43.7914H152.659L159.909 31.229L166.128 20.436L170.814 12.297H174.203L169.016 21.3796Z" fill="white"/>
<path d="M32.3591 0.117957H32.2412L32.3001 0L32.3591 0.117957Z" fill="white"/>
<path d="M97.814 22.6771L95.3679 25.0952L88.8843 31.5829L87.735 29.5776L82.5481 20.7013L91.4483 11.7661L97.814 22.6771Z" fill="white"/>
<path d="M105.742 35.8588L117.471 55.9999H103.384L96.8415 44.7645L93.305 38.6897L90.4758 33.883L99.4054 24.9478L103.826 32.556L105.742 35.8588Z" fill="white"/>
</svg>
