<svg width="318" height="56" viewBox="0 0 318 56" fill="none" xmlns="http://www.w3.org/2000/svg">
<path fill-rule="evenodd" clip-rule="evenodd" d="M0 56H284.873L317.373 0H31.8733L0 56Z" fill="white"/>
<path d="M132.002 29.472C131.976 28.4595 132.155 27.4521 132.528 26.5105C132.901 25.5688 133.46 24.7122 134.172 23.9922C134.885 23.2721 135.735 22.7035 136.672 22.3204C137.61 21.9373 138.615 21.7476 139.627 21.7628C144.032 21.7628 147.01 25.0667 147.01 29.8519V30.766H136.054C136.33 32.5667 137.794 34.07 140.294 34.07C141.721 34.0591 143.101 33.5531 144.197 32.6382L145.937 35.1988C144.472 36.5424 142.155 37.2417 139.881 37.2417C135.383 37.2197 132.002 34.2021 132.002 29.472ZM139.627 24.9291C138.735 24.873 137.857 25.1711 137.183 25.7587C136.509 26.3462 136.093 27.176 136.027 28.0678H143.289C143.162 26.6636 142.182 24.9291 139.622 24.9291H139.627Z" fill="#080C14"/>
<path d="M148.255 29.472C148.228 28.4595 148.407 27.4521 148.78 26.5105C149.153 25.5688 149.712 24.7122 150.425 23.9922C151.137 23.2721 151.987 22.7035 152.925 22.3204C153.862 21.9373 154.867 21.7476 155.88 21.7628C160.284 21.7628 163.262 25.0667 163.262 29.8519V30.766H152.312C152.587 32.5667 154.052 34.07 156.551 34.07C157.979 34.06 159.359 33.5539 160.455 32.6382L162.194 35.1988C160.73 36.5424 158.412 37.2417 156.138 37.2417C151.64 37.2197 148.255 34.2021 148.255 29.472ZM155.88 24.9291C154.988 24.873 154.11 25.1713 153.437 25.759C152.764 26.3467 152.35 27.1764 152.285 28.0678H159.53C159.42 26.6636 158.429 24.9291 155.88 24.9291V24.9291Z" fill="#080C14"/>
<path d="M166.252 33.1616V25.5075H163.813V22.121H166.252V18.0957H170.106V22.121H173.095V25.5075H170.106V32.1154C170.106 33.0625 170.59 33.7674 171.449 33.7674C171.937 33.7889 172.414 33.6257 172.787 33.3103L173.613 36.2728C173.035 36.7905 171.994 37.2145 170.381 37.2145C167.689 37.22 166.252 35.8158 166.252 33.1616Z" fill="#080C14"/>
<path d="M179.036 34.9622V42.4676H175.182V22.1209H179.036V23.9821C179.572 23.2904 180.261 22.7318 181.049 22.3497C181.837 21.9677 182.702 21.7726 183.578 21.7795C187.36 21.7795 190.107 24.5878 190.107 29.4887C190.107 34.3895 187.354 37.2364 183.578 37.2364C182.696 37.2375 181.826 37.0324 181.037 36.6375C180.249 36.2427 179.563 35.669 179.036 34.9622V34.9622ZM186.11 29.4556C186.11 26.9226 184.585 25.1825 182.361 25.1825C181.72 25.198 181.09 25.3569 180.519 25.6476C179.947 25.9382 179.448 26.3532 179.058 26.862V32.0492C179.448 32.5602 179.947 32.9784 180.518 33.2736C181.089 33.5687 181.718 33.7336 182.361 33.7562C184.585 33.7728 186.11 32.0327 186.11 29.4721V29.4556Z" fill="#080C14"/>
<path d="M191.968 18.1946C191.997 17.6029 192.252 17.045 192.681 16.6364C193.11 16.2279 193.68 16 194.272 16C194.864 16 195.434 16.2279 195.863 16.6364C196.292 17.045 196.547 17.6029 196.576 18.1946C196.591 18.5067 196.543 18.8186 196.434 19.1115C196.325 19.4044 196.158 19.6721 195.942 19.8984C195.727 20.1247 195.468 20.3048 195.181 20.4279C194.894 20.551 194.584 20.6145 194.272 20.6145C193.96 20.6145 193.65 20.551 193.363 20.4279C193.076 20.3048 192.817 20.1247 192.601 19.8984C192.386 19.6721 192.219 19.4044 192.11 19.1115C192.001 18.8186 191.953 18.5067 191.968 18.1946V18.1946ZM192.337 36.8343V22.1207H196.191V36.8563L192.337 36.8343Z" fill="#080C14"/>
<path d="M208.561 36.8561L205.209 31.9002L201.823 36.8561H197.517L202.759 29.2901L197.804 22.1316H202.137L205.187 26.647L208.204 22.1316H212.536L207.625 29.2901L212.872 36.8561H208.561Z" fill="#080C14"/>
<path d="M212.223 29.472C212.196 28.4595 212.375 27.4521 212.748 26.5105C213.121 25.5688 213.68 24.7122 214.393 23.9922C215.105 23.2721 215.955 22.7035 216.893 22.3204C217.83 21.9373 218.835 21.7476 219.848 21.7628C224.252 21.7628 227.23 25.0667 227.23 29.8519V30.766H216.28C216.555 32.5667 218.02 34.07 220.519 34.07C221.947 34.0591 223.326 33.5531 224.423 32.6383L226.146 35.1768C224.681 36.5204 222.364 37.2197 220.09 37.2197C215.608 37.2197 212.223 34.2021 212.223 29.472ZM219.848 24.9291C218.956 24.8744 218.078 25.173 217.404 25.7603C216.73 26.3476 216.315 27.1765 216.247 28.0678H223.509C223.393 26.6636 222.413 24.9291 219.848 24.9291V24.9291Z" fill="#080C14"/>
<path d="M229.449 36.8562V16.5095H233.303V36.8838L229.449 36.8562Z" fill="#080C14"/>
<path d="M125.292 29.9453C125.292 29.8942 125.292 29.8473 125.292 29.8005C125.292 29.5067 125.267 29.2171 125.254 28.9488C125.241 28.6806 125.211 28.4165 125.177 28.1525C125.143 27.8885 125.122 27.6926 125.088 27.4627C124.844 25.8958 124.416 24.3635 123.811 22.8978C123.721 22.6849 123.623 22.472 123.53 22.2591C123.249 21.6502 122.934 21.0583 122.593 20.4791L122.295 19.9894C121.959 19.4657 121.601 18.9462 121.214 18.4565C120.916 18.0732 120.596 17.6985 120.26 17.3323C119.434 16.4155 118.523 15.5787 117.54 14.8327L117.041 14.475C116.875 14.3558 116.705 14.2408 116.53 14.1258L116.011 13.7979C115.658 13.585 115.296 13.3721 114.934 13.189C114.764 13.0996 114.598 13.0187 114.427 12.9377C114.385 12.9117 114.341 12.8889 114.295 12.8696C114.155 12.8057 114.019 12.7376 113.87 12.6823C113.721 12.6269 113.478 12.4991 113.282 12.4225L113.163 12.3757C112.792 12.2309 112.418 12.0861 112.035 11.9498C111.835 11.8817 111.609 11.8136 111.417 11.754C111.373 11.7373 111.328 11.7244 111.281 11.7156C111.072 11.6518 110.855 11.5964 110.647 11.541L110.353 11.4729C108.927 11.1516 107.468 10.993 106.006 11.0002H105.512C105.324 11.8145 105.227 12.6471 105.223 13.4828V13.5552C105.223 13.8235 105.223 14.0875 105.257 14.3558C105.255 14.3605 105.254 14.3655 105.254 14.3707C105.254 14.3758 105.255 14.3808 105.257 14.3856C105.257 14.5048 105.257 14.6283 105.287 14.7433C105.316 14.8582 105.316 15.0328 105.342 15.1691C105.392 15.5488 105.464 15.9255 105.555 16.2975C105.593 16.4849 105.644 16.6595 105.695 16.8383C106.33 18.9931 107.575 20.9177 109.281 22.3793C110.986 23.8409 113.078 24.7768 115.304 25.0738C114.646 25.194 113.977 25.2538 113.308 25.2527C111.668 25.2514 110.048 24.8925 108.561 24.2009C108.437 24.1455 108.322 24.0859 108.203 24.0263C108.089 23.9755 107.978 23.9186 107.871 23.8559C106.891 23.3374 105.997 22.6693 105.223 21.8758C104.975 21.6281 104.742 21.3665 104.525 21.0923C104.355 20.8985 104.199 20.6936 104.056 20.4791C103.3 19.4357 102.731 18.2686 102.375 17.0299C102.332 16.8809 102.289 16.7276 102.251 16.5743C102.16 16.2166 102.088 15.8504 102.034 15.4757H101.945L101.766 15.5097C98.5636 16.1354 95.5549 17.5103 92.9857 19.5219C90.4166 21.5335 88.36 24.1247 86.984 27.0837C85.6726 29.8851 84.9952 32.9413 85 36.0346V45.4922H90.0366C90.0366 45.3942 90.0366 45.292 90.0366 45.1941V45.1558C90.0323 45.0948 90.0323 45.0336 90.0366 44.9727C90.0399 44.8302 90.0513 44.688 90.0706 44.5468V44.3935C90.1515 43.8639 90.3168 43.3506 90.5602 42.8733C90.5602 42.8733 90.5602 42.8733 90.5602 42.8733C91.0048 41.9791 91.7059 41.2378 92.574 40.7442C92.5972 40.7298 92.6214 40.717 92.6464 40.7059L92.7826 40.6335L92.8465 40.6037C93.52 40.2751 94.2598 40.1047 95.0092 40.1055C95.8853 40.0981 96.7479 40.3223 97.5096 40.7552C98.2714 41.1881 98.9054 41.8145 99.3475 42.571C99.3731 42.6221 99.4029 42.669 99.4242 42.7115C99.4495 42.746 99.4709 42.7831 99.488 42.8223C99.488 42.8223 99.5178 42.8861 99.5349 42.9159C99.5519 42.9457 99.5987 43.065 99.6328 43.1374C99.6688 43.2114 99.6987 43.2884 99.7222 43.3673C99.7555 43.446 99.7826 43.5271 99.8031 43.61C99.8031 43.6867 99.8457 43.7676 99.8712 43.8528C99.8967 43.9379 99.9351 44.1423 99.9606 44.2786L99.9862 44.4702C100.015 44.6818 100.03 44.8953 100.029 45.1089V45.4922H105.223V45.2069C105.228 44.4131 105.299 43.6212 105.436 42.8393V42.8393C105.461 42.686 105.487 42.5284 105.517 42.3709C105.546 42.2133 105.576 42.0728 105.606 41.945C105.602 41.9239 105.602 41.9023 105.606 41.8812C105.631 41.7407 105.666 41.6086 105.704 41.4553C105.772 41.1871 105.853 40.9145 105.942 40.6505C105.961 40.5865 105.983 40.5239 106.01 40.4632C106.134 40.097 106.266 39.7308 106.436 39.3773C106.606 39.0239 106.713 38.679 106.9 38.3213C107.088 37.9636 107.266 37.657 107.462 37.3333C107.658 37.0097 107.888 36.6861 108.109 36.3838C108.216 36.239 108.326 36.0857 108.446 35.9579C108.565 35.8131 108.684 35.6684 108.808 35.5321L109.101 35.1957C109.216 35.0722 109.327 34.9487 109.446 34.8295L109.668 34.6081C109.748 34.5272 109.825 34.4548 109.906 34.3824C110.063 34.2376 110.221 34.0885 110.383 33.9565C110.706 33.6798 111.043 33.4072 111.396 33.156L111.928 32.7898C112.222 32.6024 112.52 32.4236 112.822 32.249L113.227 32.0275C113.478 31.8955 113.738 31.7721 113.997 31.6528C114.257 31.5336 114.461 31.4527 114.696 31.3633C116.395 30.7122 118.198 30.3718 120.017 30.3583H120.09C120.247 30.3583 120.409 30.3583 120.567 30.3583C120.613 30.8196 120.636 31.2829 120.635 31.7465C120.635 33.8164 120.216 35.8649 119.403 37.7684C118.59 39.672 117.4 41.3911 115.905 42.8223H120.677C122.984 40.1252 124.501 36.8436 125.062 33.3391C125.096 33.1304 125.126 32.9133 125.152 32.7046C125.186 32.4023 125.22 32.0914 125.241 31.7848C125.241 31.6656 125.241 31.5549 125.241 31.4357C125.246 31.3719 125.246 31.3078 125.241 31.244V31.2185C125.241 30.9161 125.262 30.6053 125.262 30.2987C125.297 30.1624 125.297 30.0602 125.292 29.9453Z" fill="#080C14"/>
</svg>
