<svg width="51" height="34" viewBox="0 0 51 34" fill="none" xmlns="http://www.w3.org/2000/svg">
<path d="M23.7485 28.392C22.8951 30.3973 21.7005 31.8267 20.1645 32.68C18.6285 33.4907 16.8365 33.896 14.7885 33.896C12.8685 33.896 11.0551 33.5333 9.34846 32.808C7.68446 32.0827 6.21246 31.016 4.93246 29.608C3.65246 28.2 2.62846 26.4933 1.86046 24.488C1.13513 22.4827 0.772461 20.2 0.772461 17.64V16.616C0.772461 14.0987 1.13513 11.8373 1.86046 9.83199C2.58579 7.82666 3.56713 6.11999 4.80446 4.71199C6.04179 3.30399 7.47113 2.23732 9.09246 1.51199C10.7565 0.743988 12.5271 0.359985 14.4045 0.359985C16.6658 0.359985 18.4791 0.743988 19.8445 1.51199C21.2525 2.27999 22.3618 3.47466 23.1725 5.09599H24.3245V1.25599H32.3885V23.4C32.3885 24.68 32.9645 25.32 34.1165 25.32H35.3325V33H29.8285C28.3778 33 27.1831 32.5733 26.2445 31.72C25.3485 30.8667 24.9005 29.7573 24.9005 28.392H23.7485ZM16.5805 26.216C18.9271 26.216 20.8045 25.448 22.2125 23.912C23.6205 22.3333 24.3245 20.2 24.3245 17.512V16.744C24.3245 14.056 23.6205 11.944 22.2125 10.408C20.8045 8.82932 18.9271 8.03999 16.5805 8.03999C14.2338 8.03999 12.3565 8.82932 10.9485 10.408C9.54046 11.944 8.83646 14.056 8.83646 16.744V17.512C8.83646 20.2 9.54046 22.3333 10.9485 23.912C12.3565 25.448 14.2338 26.216 16.5805 26.216Z" fill="#E8EEFC"/>
<path d="M50.264 27.816C50.264 28.6693 50.0933 29.48 49.752 30.248C49.4533 30.9733 49.0266 31.6133 48.472 32.168C47.9173 32.68 47.256 33.0853 46.488 33.384C45.7626 33.7253 44.9946 33.896 44.184 33.896C43.3306 33.896 42.5413 33.7253 41.816 33.384C41.0906 33.0853 40.4506 32.68 39.896 32.168C39.3413 31.6133 38.8933 30.9733 38.552 30.248C38.2533 29.48 38.104 28.6693 38.104 27.816C38.104 26.9627 38.2533 26.1733 38.552 25.448C38.8933 24.68 39.3413 24.04 39.896 23.528C40.4506 22.9733 41.0906 22.5467 41.816 22.248C42.5413 21.9067 43.3306 21.736 44.184 21.736C44.9946 21.736 45.7626 21.9067 46.488 22.248C47.256 22.5467 47.9173 22.9733 48.472 23.528C49.0266 24.04 49.4533 24.68 49.752 25.448C50.0933 26.1733 50.264 26.9627 50.264 27.816Z" fill="#E8EEFC"/>
</svg>
