<svg width="207" height="49" viewBox="0 0 207 49" fill="none" xmlns="http://www.w3.org/2000/svg">
<path d="M23.9399 43.392C23.0865 45.3973 21.8919 46.8267 20.3559 47.68C18.8199 48.4907 17.0279 48.896 14.9799 48.896C13.0599 48.896 11.2465 48.5333 9.53987 47.808C7.87587 47.0827 6.40387 46.016 5.12387 44.608C3.84387 43.2 2.81987 41.4933 2.05187 39.488C1.32653 37.4827 0.963867 35.2 0.963867 32.64V31.616C0.963867 29.0987 1.32653 26.8373 2.05187 24.832C2.7772 22.8267 3.75853 21.12 4.99587 19.712C6.2332 18.304 7.66253 17.2373 9.28387 16.512C10.9479 15.744 12.7185 15.36 14.5959 15.36C16.8572 15.36 18.6705 15.744 20.0359 16.512C21.4439 17.28 22.5532 18.4747 23.3639 20.096H24.5159V16.256H32.5799V38.4C32.5799 39.68 33.1559 40.32 34.3079 40.32H35.5239V48H30.0199C28.5692 48 27.3745 47.5733 26.4359 46.72C25.5399 45.8667 25.0919 44.7573 25.0919 43.392H23.9399ZM16.7719 41.216C19.1185 41.216 20.9959 40.448 22.4039 38.912C23.8119 37.3333 24.5159 35.2 24.5159 32.512V31.744C24.5159 29.056 23.8119 26.944 22.4039 25.408C20.9959 23.8293 19.1185 23.04 16.7719 23.04C14.4252 23.04 12.5479 23.8293 11.1399 25.408C9.73187 26.944 9.02787 29.056 9.02787 31.744V32.512C9.02787 35.2 9.73187 37.3333 11.1399 38.912C12.5479 40.448 14.4252 41.216 16.7719 41.216Z" fill="white"/>
<path d="M38.4874 16.256H51.9274V20.864H53.0794C53.6767 19.1147 54.6794 17.7707 56.0874 16.832C57.538 15.8507 59.266 15.36 61.2714 15.36C64.4287 15.36 66.9674 16.3627 68.8874 18.368C70.8074 20.3307 71.7674 23.3387 71.7674 27.392V28.8L63.4474 29.568V28.672C63.4474 26.9227 62.9994 25.536 62.1034 24.512C61.2074 23.4453 59.8634 22.912 58.0714 22.912C56.2794 22.912 54.8714 23.5307 53.8474 24.768C52.8234 26.0053 52.3114 27.776 52.3114 30.08V40.32H59.6074V48H37.7194V40.32H44.2474V23.936H38.4874V16.256Z" fill="white"/>
<path d="M72.7469 40.32H83.4989V23.936H73.5149V16.256H91.5629V40.32H100.779V48H72.7469V40.32ZM93.5469 6.84801C93.5469 7.70134 93.3762 8.51201 93.0349 9.28001C92.7362 10.0053 92.3095 10.6453 91.7549 11.2C91.2002 11.712 90.5389 12.1387 89.7709 12.48C89.0455 12.7787 88.2775 12.928 87.4669 12.928C86.6135 12.928 85.8242 12.7787 85.0989 12.48C84.3735 12.1387 83.7335 11.712 83.1789 11.2C82.6242 10.6453 82.1762 10.0053 81.8349 9.28001C81.5362 8.51201 81.3869 7.70134 81.3869 6.84801C81.3869 5.99467 81.5362 5.20534 81.8349 4.48001C82.1762 3.71201 82.6242 3.07201 83.1789 2.56001C83.7335 2.00534 84.3735 1.57867 85.0989 1.28001C85.8242 0.938672 86.6135 0.768005 87.4669 0.768005C88.2775 0.768005 89.0455 0.938672 89.7709 1.28001C90.5389 1.57867 91.2002 2.00534 91.7549 2.56001C92.3095 3.07201 92.7362 3.71201 93.0349 4.48001C93.3762 5.20534 93.5469 5.99467 93.5469 6.84801Z" fill="white"/>
<path d="M111.102 27.904H112.638L121.086 16.256H129.918V16.64L119.678 31.168V32.32L130.942 47.616V48H121.726L112.638 35.584H111.102V48H103.038V3.2H111.102V27.904Z" fill="white"/>
<path d="M139.41 27.904H140.946L149.394 16.256H158.226V16.64L147.986 31.168V32.32L159.25 47.616V48H150.034L140.946 35.584H139.41V48H131.346V3.2H139.41V27.904Z" fill="white"/>
<path d="M188.197 32.512C188.197 35.1573 187.749 37.504 186.853 39.552C185.957 41.5573 184.741 43.264 183.205 44.672C181.669 46.0373 179.899 47.0827 177.893 47.808C175.931 48.5333 173.861 48.896 171.685 48.896C169.509 48.896 167.419 48.5333 165.413 47.808C163.451 47.0827 161.701 46.0373 160.165 44.672C158.629 43.264 157.413 41.5573 156.517 39.552C155.621 37.504 155.173 35.1573 155.173 32.512V31.744C155.173 29.1413 155.621 26.8373 156.517 24.832C157.413 22.784 158.629 21.056 160.165 19.648C161.701 18.24 163.451 17.1733 165.413 16.448C167.419 15.7227 169.509 15.36 171.685 15.36C173.861 15.36 175.931 15.7227 177.893 16.448C179.899 17.1733 181.669 18.24 183.205 19.648C184.741 21.056 185.957 22.784 186.853 24.832C187.749 26.8373 188.197 29.1413 188.197 31.744V32.512ZM171.685 41.216C172.837 41.216 173.925 41.024 174.949 40.64C175.973 40.256 176.869 39.7013 177.637 38.976C178.405 38.2507 179.003 37.376 179.429 36.352C179.899 35.2853 180.133 34.0907 180.133 32.768V31.488C180.133 30.1653 179.899 28.992 179.429 27.968C179.003 26.9013 178.405 26.0053 177.637 25.28C176.869 24.5547 175.973 24 174.949 23.616C173.925 23.232 172.837 23.04 171.685 23.04C170.533 23.04 169.445 23.232 168.421 23.616C167.397 24 166.501 24.5547 165.733 25.28C164.965 26.0053 164.347 26.9013 163.877 27.968C163.451 28.992 163.237 30.1653 163.237 31.488V32.768C163.237 34.0907 163.451 35.2853 163.877 36.352C164.347 37.376 164.965 38.2507 165.733 38.976C166.501 39.7013 167.397 40.256 168.421 40.64C169.445 41.024 170.533 41.216 171.685 41.216Z" fill="white"/>
<path d="M206.073 42.816C206.073 43.6693 205.902 44.48 205.561 45.248C205.262 45.9733 204.836 46.6133 204.281 47.168C203.726 47.68 203.065 48.0853 202.297 48.384C201.572 48.7253 200.804 48.896 199.993 48.896C199.14 48.896 198.35 48.7253 197.625 48.384C196.9 48.0853 196.26 47.68 195.705 47.168C195.15 46.6133 194.702 45.9733 194.361 45.248C194.062 44.48 193.913 43.6693 193.913 42.816C193.913 41.9627 194.062 41.1733 194.361 40.448C194.702 39.68 195.15 39.04 195.705 38.528C196.26 37.9733 196.9 37.5467 197.625 37.248C198.35 36.9067 199.14 36.736 199.993 36.736C200.804 36.736 201.572 36.9067 202.297 37.248C203.065 37.5467 203.726 37.9733 204.281 38.528C204.836 39.04 205.262 39.68 205.561 40.448C205.902 41.1733 206.073 41.9627 206.073 42.816Z" fill="white"/>
</svg>
