<svg width="318" height="56" viewBox="0 0 318 56" fill="none" xmlns="http://www.w3.org/2000/svg">
<path d="M285 56H0.126678L32 0H317.5L285 56Z" fill="white"/>
<path d="M52.7658 15.9385C54.3019 15.8728 55.8322 16.1645 57.2364 16.7907C58.6406 17.4168 59.8803 18.3604 60.858 19.547C61.8402 20.7495 62.537 22.1591 62.896 23.6698C63.2551 25.1804 63.267 26.7528 62.9309 28.2687C62.3099 31.6995 60.4794 34.794 57.7716 36.9903C55.2034 39.3007 51.8748 40.5851 48.4203 40.5988C46.8846 40.6621 45.355 40.3693 43.9512 39.7434C42.5474 39.1174 41.3074 38.1751 40.3282 36.9903C39.348 35.7866 38.6524 34.377 38.2935 32.8668C37.9345 31.3565 37.9215 29.7847 38.2553 28.2687C38.8763 24.8378 40.7068 21.7434 43.4146 19.547C45.9858 17.2416 49.3125 15.9579 52.7658 15.9385ZM49.6948 33.5508C51.1599 33.4777 52.5589 32.9189 53.6711 31.9624C54.7833 31.0059 55.5453 29.7063 55.8368 28.2687C55.9866 27.6272 55.9869 26.9599 55.8378 26.3182C55.6887 25.6766 55.3942 25.0778 54.977 24.5681C54.5608 24.0603 54.0316 23.657 53.4317 23.3904C52.8318 23.1238 52.1778 23.0012 51.5221 23.0326C50.0431 23.036 48.617 23.5824 47.5144 24.5681C46.3538 25.5041 45.5734 26.8303 45.3186 28.2994C45.1716 28.948 45.1755 29.6217 45.3299 30.2686C45.4843 30.9155 45.7851 31.5183 46.2092 32.0307C46.6285 32.5338 47.1586 32.9328 47.7581 33.1966C48.3575 33.4603 49.0099 33.5816 49.6641 33.5508H49.6948Z" fill="#080C14"/>
<path d="M67.952 15.355L80.1132 26.3492L81.9559 15.9538H89.0038L84.6276 40.7676L72.4664 29.7734L70.547 40.5987H63.499L67.952 15.355Z" fill="#080C14"/>
<path d="M110.793 15.9385L109.564 23.0325H97.572L97.1267 25.5047H106.34L105.342 31.1554H96.1286L95.6833 33.6122H107.676L106.432 40.6602H87.4069L91.737 15.9385H110.793Z" fill="#080C14"/>
<path d="M147.537 15.9385L137.004 28.2225L143.146 40.5066H134.731L131.66 34.5488L126.486 40.5988H117.933L128.466 28.3147L122.324 16.0306H130.831L133.902 22.0805L139.092 16.0306L147.537 15.9385Z" fill="#080C14"/>
<path d="M178.063 15.9385L176.82 23.0325H170.831L167.76 40.6602H160.712L163.783 23.0325H157.764L159.008 15.9999L178.063 15.9385Z" fill="#080C14"/>
<path d="M200.896 15.9385L196.535 40.5988H189.488L191.023 31.8003H185.065L183.53 40.5988H176.482L180.797 15.9385H187.845L186.309 24.7369H192.267L193.802 15.9385H200.896Z" fill="#080C14"/>
<path d="M222.931 26.1804C222.433 29.0096 220.934 31.5655 218.708 33.3819L221.058 40.5988H213.18L211.814 36.4069H210.877H207.084L206.347 40.5681H199.299L203.645 15.9078H214.578C215.851 15.8565 217.119 16.1001 218.283 16.6195C219.447 17.1388 220.475 17.92 221.288 18.9021C222.096 19.9112 222.664 21.0909 222.948 22.3519C223.233 23.6128 223.227 24.922 222.931 26.1804ZM212.182 29.3896C213.079 29.3883 213.944 29.0546 214.608 28.4529C215.313 27.8813 215.788 27.0742 215.944 26.1804C216.033 25.7881 216.03 25.3808 215.937 24.9896C215.844 24.5984 215.662 24.2337 215.407 23.9232C215.159 23.6104 214.841 23.361 214.478 23.1954C214.114 23.0299 213.717 22.9531 213.319 22.9712H209.511L208.39 29.3896H212.182Z" fill="#080C14"/>
<path d="M247.192 15.9385L245.948 23.0325H233.956L233.526 25.5047H242.739L241.741 31.1554H232.528L232.098 33.6122H244.09L242.846 40.6602H223.791L228.136 15.9999L247.192 15.9385Z" fill="#080C14"/>
<path d="M268.981 15.9385L267.737 23.0325H255.76L255.315 25.5047H264.528L263.545 31.1554H254.332L253.887 33.6122H265.879L264.635 40.6602H245.595L249.894 15.9385H268.981Z" fill="#080C14"/>
<path d="M268.628 33.551H275.676L274.463 40.599H267.415L268.628 33.551Z" fill="#080C14"/>
</svg>
